<svg id="svg" version="1.1" xmlns="http://www.w3.org/2000/svg" xmlns:xlink="http://www.w3.org/1999/xlink" width="400" height="400" viewBox="0, 0, 400,400"><g id="svgg"><path id="path0" d="M19.200 201.600 C 19.200 202.480,19.020 203.200,18.800 203.200 C 18.535 203.200,18.400 223.400,18.400 263.000 C 18.400 302.600,18.535 322.800,18.800 322.800 C 19.031 322.800,19.200 324.059,19.200 325.776 C 19.200 327.413,19.380 328.864,19.600 329.000 C 19.820 329.136,20.000 330.122,20.000 331.190 C 20.000 332.259,20.184 333.195,20.409 333.270 C 20.633 333.344,20.842 334.079,20.873 334.903 C 20.904 335.726,21.080 336.400,21.265 336.400 C 21.449 336.400,21.600 337.030,21.600 337.800 C 21.600 338.570,21.780 339.200,22.000 339.200 C 22.220 339.200,22.400 339.661,22.400 340.224 C 22.400 340.804,22.573 341.140,22.800 341.000 C 23.020 340.864,23.200 340.943,23.200 341.176 C 23.200 341.409,22.984 341.600,22.720 341.600 C 22.347 341.600,22.347 341.707,22.720 342.080 C 22.984 342.344,23.200 342.884,23.200 343.280 C 23.200 343.676,23.380 344.000,23.600 344.000 C 23.820 344.000,24.000 344.540,24.000 345.200 C 24.000 345.860,24.180 346.400,24.400 346.400 C 24.620 346.400,24.800 346.760,24.800 347.200 C 24.800 347.640,24.980 348.000,25.200 348.000 C 25.420 348.000,25.600 348.360,25.600 348.800 C 25.600 349.240,25.864 349.600,26.187 349.600 C 26.537 349.600,26.685 349.836,26.552 350.181 C 26.249 350.971,28.394 354.845,28.957 354.524 C 29.201 354.385,29.270 354.416,29.111 354.592 C 28.793 354.944,29.983 357.200,30.486 357.200 C 30.659 357.200,30.800 357.476,30.800 357.813 C 30.800 358.149,31.115 358.546,31.499 358.693 C 32.366 359.026,34.000 360.629,34.000 361.147 C 34.000 361.656,38.684 366.400,39.187 366.400 C 39.403 366.400,40.389 367.210,41.379 368.200 C 42.369 369.190,43.320 370.000,43.493 370.000 C 43.666 370.000,44.032 370.360,44.307 370.800 C 44.582 371.240,45.060 371.600,45.370 371.600 C 45.680 371.600,45.993 371.760,46.067 371.956 C 46.244 372.429,51.511 375.200,52.233 375.200 C 52.545 375.200,52.800 375.380,52.800 375.600 C 52.800 375.820,53.149 376.000,53.576 376.000 C 54.003 376.000,54.464 376.180,54.600 376.400 C 54.736 376.620,55.287 376.800,55.824 376.800 C 56.361 376.800,56.800 376.980,56.800 377.200 C 56.800 377.420,57.149 377.600,57.576 377.600 C 58.003 377.600,58.464 377.780,58.600 378.000 C 58.736 378.220,59.467 378.400,60.224 378.400 C 60.981 378.400,61.600 378.580,61.600 378.800 C 61.600 379.020,62.129 379.200,62.776 379.200 C 63.423 379.200,64.064 379.380,64.200 379.600 C 64.336 379.820,65.157 380.000,66.024 380.000 C 66.891 380.000,67.600 380.180,67.600 380.400 C 67.600 380.622,68.667 380.800,70.000 380.800 C 71.333 380.800,72.400 380.978,72.400 381.200 C 72.400 381.425,73.525 381.600,74.976 381.600 C 76.393 381.600,77.664 381.780,77.800 382.000 C 77.964 382.265,119.263 382.400,200.400 382.400 C 281.537 382.400,322.836 382.265,323.000 382.000 C 323.136 381.780,324.407 381.600,325.824 381.600 C 327.275 381.600,328.400 381.425,328.400 381.200 C 328.400 380.978,329.467 380.800,330.800 380.800 C 332.133 380.800,333.200 380.622,333.200 380.400 C 333.200 380.180,333.920 380.000,334.800 380.000 C 335.680 380.000,336.400 379.820,336.400 379.600 C 336.400 379.380,337.030 379.200,337.800 379.200 C 338.570 379.200,339.200 379.020,339.200 378.800 C 339.200 378.580,339.819 378.400,340.576 378.400 C 341.333 378.400,342.064 378.220,342.200 378.000 C 342.336 377.780,342.797 377.600,343.224 377.600 C 343.651 377.600,344.000 377.420,344.000 377.200 C 344.000 376.980,344.540 376.800,345.200 376.800 C 345.860 376.800,346.400 376.620,346.400 376.400 C 346.400 376.180,346.760 376.000,347.200 376.000 C 347.640 376.000,348.000 375.820,348.000 375.600 C 348.000 375.380,348.288 375.200,348.639 375.200 C 349.523 375.200,355.522 372.037,356.555 371.027 C 357.020 370.572,357.895 369.945,358.500 369.632 C 359.105 369.320,359.600 368.801,359.600 368.479 C 359.600 367.889,361.057 366.400,361.635 366.400 C 362.126 366.400,366.000 362.502,366.000 362.008 C 366.000 361.378,367.856 359.600,368.514 359.600 C 368.817 359.600,369.320 359.105,369.632 358.500 C 369.944 357.895,370.290 357.310,370.402 357.200 C 371.851 355.772,375.200 349.777,375.200 348.611 C 375.200 348.275,375.380 348.000,375.600 348.000 C 375.820 348.000,376.000 347.640,376.000 347.200 C 376.000 346.760,376.180 346.400,376.400 346.400 C 376.620 346.400,376.800 345.860,376.800 345.200 C 376.800 344.540,376.980 344.000,377.200 344.000 C 377.420 344.000,377.600 343.640,377.600 343.200 C 377.600 342.760,377.780 342.400,378.000 342.400 C 378.220 342.400,378.400 341.871,378.400 341.224 C 378.400 340.577,378.580 339.936,378.800 339.800 C 379.020 339.664,379.200 338.933,379.200 338.176 C 379.200 337.419,379.380 336.800,379.600 336.800 C 379.820 336.800,380.000 335.990,380.000 335.000 C 380.000 334.010,380.163 333.200,380.363 333.200 C 380.729 333.200,381.045 331.010,381.445 325.700 C 381.565 324.105,381.829 322.800,382.032 322.800 C 382.255 322.800,382.400 298.555,382.400 261.400 L 382.400 200.000 277.200 200.000 L 172.000 200.000 172.000 255.776 C 172.000 292.529,171.864 311.637,171.600 311.800 C 171.380 311.936,171.200 312.487,171.200 313.024 C 171.200 313.561,171.020 314.000,170.800 314.000 C 170.580 314.000,170.400 314.275,170.400 314.611 C 170.400 315.404,167.004 318.800,166.211 318.800 C 165.875 318.800,165.600 318.980,165.600 319.200 C 165.600 319.420,165.060 319.600,164.400 319.600 C 163.740 319.600,163.200 319.780,163.200 320.000 C 163.200 320.262,155.933 320.400,142.200 320.400 C 128.467 320.400,121.200 320.262,121.200 320.000 C 121.200 319.780,120.840 319.600,120.400 319.600 C 119.960 319.600,119.600 319.420,119.600 319.200 C 119.600 318.980,119.327 318.800,118.993 318.800 C 117.811 318.800,113.200 313.730,113.200 312.431 C 113.200 311.780,113.020 311.136,112.800 311.000 C 112.536 310.837,112.400 291.863,112.400 255.376 L 112.400 200.000 65.800 200.000 L 19.200 200.000 19.200 201.600 M272.600 209.600 C 272.736 209.820,273.521 210.000,274.344 210.000 C 275.867 210.000,277.991 210.756,277.997 211.300 C 277.999 211.465,278.429 211.600,278.954 211.600 C 280.056 211.600,285.200 216.352,285.200 217.369 C 285.200 217.716,285.380 218.000,285.600 218.000 C 285.820 218.000,286.000 218.360,286.000 218.800 C 286.000 219.240,286.180 219.600,286.400 219.600 C 286.620 219.600,286.800 219.960,286.800 220.400 C 286.800 220.840,286.980 221.200,287.200 221.200 C 287.420 221.200,287.600 221.819,287.600 222.576 C 287.600 223.333,287.780 224.064,288.000 224.200 C 288.262 224.362,288.400 238.330,288.400 264.800 C 288.400 291.270,288.262 305.238,288.000 305.400 C 287.780 305.536,287.600 306.146,287.600 306.756 C 287.600 309.142,281.551 317.200,279.760 317.200 C 279.506 317.200,279.077 317.466,278.807 317.792 C 277.989 318.777,275.966 319.600,274.362 319.600 C 273.529 319.600,272.736 319.780,272.600 320.000 C 272.438 320.262,260.663 320.400,238.576 320.400 C 216.325 320.400,204.800 320.264,204.800 320.000 C 204.800 319.780,203.900 319.600,202.800 319.600 C 201.700 319.600,200.800 319.420,200.800 319.200 C 200.800 318.980,200.480 318.800,200.088 318.800 C 199.697 318.800,199.117 318.440,198.800 318.000 C 198.483 317.560,198.018 317.200,197.767 317.200 C 196.688 317.200,191.993 311.816,191.743 310.291 C 191.606 309.461,191.339 308.686,191.147 308.568 C 190.956 308.449,190.800 307.913,190.800 307.376 C 190.800 306.839,190.620 306.400,190.400 306.400 C 190.136 306.400,190.000 292.341,190.000 265.024 C 190.000 237.871,190.138 223.562,190.400 223.400 C 190.620 223.264,190.800 222.724,190.800 222.200 C 190.800 221.676,190.956 221.151,191.147 221.032 C 191.339 220.914,191.604 220.139,191.737 219.309 C 192.251 216.099,199.790 210.000,203.244 210.000 C 204.074 210.000,204.864 209.820,205.000 209.600 C 205.162 209.338,216.863 209.200,238.800 209.200 C 260.737 209.200,272.438 209.338,272.600 209.600 " stroke="none" fill="#0454b4" fill-rule="evenodd"></path><path id="path1" d="M118.800 81.600 C 118.800 81.820,118.533 82.000,118.206 82.000 C 117.248 82.000,114.000 85.597,114.000 86.658 C 114.000 87.176,113.820 87.600,113.600 87.600 C 113.380 87.600,113.200 87.960,113.200 88.400 C 113.200 88.840,113.020 89.200,112.800 89.200 C 112.245 89.200,112.245 310.657,112.800 311.000 C 113.020 311.136,113.200 311.780,113.200 312.431 C 113.200 313.730,117.811 318.800,118.993 318.800 C 119.327 318.800,119.600 318.980,119.600 319.200 C 119.600 319.420,119.960 319.600,120.400 319.600 C 120.840 319.600,121.200 319.780,121.200 320.000 C 121.200 320.262,128.467 320.400,142.200 320.400 C 155.933 320.400,163.200 320.262,163.200 320.000 C 163.200 319.780,163.740 319.600,164.400 319.600 C 165.060 319.600,165.600 319.420,165.600 319.200 C 165.600 318.980,165.875 318.800,166.211 318.800 C 167.004 318.800,170.400 315.404,170.400 314.611 C 170.400 314.275,170.580 314.000,170.800 314.000 C 171.020 314.000,171.200 313.561,171.200 313.024 C 171.200 312.487,171.380 311.936,171.600 311.800 C 172.155 311.457,172.155 88.400,171.600 88.400 C 171.380 88.400,171.200 88.040,171.200 87.600 C 171.200 87.160,171.020 86.800,170.800 86.800 C 170.580 86.800,170.400 86.525,170.400 86.189 C 170.400 85.396,167.004 82.000,166.211 82.000 C 165.875 82.000,165.600 81.820,165.600 81.600 C 165.600 81.338,157.533 81.200,142.200 81.200 C 126.867 81.200,118.800 81.338,118.800 81.600 M202.400 81.600 C 202.400 81.820,201.903 82.000,201.296 82.000 C 200.626 82.000,199.996 82.314,199.693 82.800 C 199.418 83.240,198.965 83.600,198.686 83.600 C 196.697 83.600,191.600 90.764,191.600 93.560 C 191.600 94.462,191.420 95.200,191.200 95.200 C 190.936 95.200,190.800 109.125,190.800 136.176 C 190.800 163.063,190.938 177.238,191.200 177.400 C 191.420 177.536,191.600 178.186,191.600 178.846 C 191.600 182.899,199.560 190.800,203.644 190.800 C 204.254 190.800,204.864 190.980,205.000 191.200 C 205.341 191.752,273.059 191.752,273.400 191.200 C 273.536 190.980,274.256 190.800,275.000 190.800 C 275.744 190.800,276.464 190.620,276.600 190.400 C 276.736 190.180,277.199 190.000,277.629 190.000 C 279.485 190.000,286.000 183.935,286.000 182.206 C 286.000 181.653,286.180 181.200,286.400 181.200 C 286.620 181.200,286.800 180.840,286.800 180.400 C 286.800 179.960,286.980 179.600,287.200 179.600 C 287.420 179.600,287.600 178.981,287.600 178.224 C 287.600 177.467,287.780 176.736,288.000 176.600 C 288.262 176.438,288.400 162.470,288.400 136.000 C 288.400 109.530,288.262 95.562,288.000 95.400 C 287.780 95.264,287.600 94.649,287.600 94.033 C 287.600 91.253,282.090 83.600,280.088 83.600 C 279.668 83.600,278.998 83.240,278.600 82.800 C 278.202 82.360,277.465 82.000,276.962 82.000 C 276.459 82.000,275.936 81.820,275.800 81.600 C 275.638 81.338,262.929 81.200,238.976 81.200 C 214.859 81.200,202.400 81.336,202.400 81.600 M18.400 119.600 C 18.400 131.067,18.539 137.200,18.800 137.200 C 19.061 137.200,19.200 131.067,19.200 119.600 C 19.200 108.133,19.061 102.000,18.800 102.000 C 18.539 102.000,18.400 108.133,18.400 119.600 M18.400 183.200 C 18.400 196.267,18.539 203.200,18.800 203.200 C 19.061 203.200,19.200 196.267,19.200 183.200 C 19.200 170.133,19.061 163.200,18.800 163.200 C 18.539 163.200,18.400 170.133,18.400 183.200 M205.000 209.600 C 204.864 209.820,204.074 210.000,203.244 210.000 C 199.790 210.000,192.251 216.099,191.737 219.309 C 191.604 220.139,191.339 220.914,191.147 221.032 C 190.956 221.151,190.800 221.676,190.800 222.200 C 190.800 222.724,190.620 223.264,190.400 223.400 C 190.138 223.562,190.000 237.871,190.000 265.024 C 190.000 292.341,190.136 306.400,190.400 306.400 C 190.620 306.400,190.800 306.839,190.800 307.376 C 190.800 307.913,190.956 308.449,191.147 308.568 C 191.339 308.686,191.606 309.461,191.743 310.291 C 191.993 311.816,196.688 317.200,197.767 317.200 C 198.018 317.200,198.483 317.560,198.800 318.000 C 199.117 318.440,199.697 318.800,200.088 318.800 C 200.480 318.800,200.800 318.980,200.800 319.200 C 200.800 319.420,201.700 319.600,202.800 319.600 C 203.900 319.600,204.800 319.780,204.800 320.000 C 204.800 320.264,216.325 320.400,238.576 320.400 C 260.663 320.400,272.438 320.262,272.600 320.000 C 272.736 319.780,273.529 319.600,274.362 319.600 C 275.966 319.600,277.989 318.777,278.807 317.792 C 279.077 317.466,279.506 317.200,279.760 317.200 C 281.551 317.200,287.600 309.142,287.600 306.756 C 287.600 306.146,287.780 305.536,288.000 305.400 C 288.262 305.238,288.400 291.270,288.400 264.800 C 288.400 238.330,288.262 224.362,288.000 224.200 C 287.780 224.064,287.600 223.333,287.600 222.576 C 287.600 221.819,287.420 221.200,287.200 221.200 C 286.980 221.200,286.800 220.840,286.800 220.400 C 286.800 219.960,286.620 219.600,286.400 219.600 C 286.180 219.600,286.000 219.240,286.000 218.800 C 286.000 218.360,285.820 218.000,285.600 218.000 C 285.380 218.000,285.200 217.716,285.200 217.369 C 285.200 216.352,280.056 211.600,278.954 211.600 C 278.429 211.600,277.999 211.465,277.997 211.300 C 277.991 210.756,275.867 210.000,274.344 210.000 C 273.521 210.000,272.736 209.820,272.600 209.600 C 272.438 209.338,260.737 209.200,238.800 209.200 C 216.863 209.200,205.162 209.338,205.000 209.600 " stroke="none" fill="#fbfbfb" fill-rule="evenodd"></path><path id="path2" d="M77.800 18.800 C 77.664 19.020,76.134 19.200,74.400 19.200 C 72.666 19.200,71.148 19.360,71.027 19.556 C 70.906 19.751,70.221 20.014,69.504 20.139 C 68.787 20.264,67.300 20.547,66.200 20.768 C 65.100 20.989,63.613 21.287,62.895 21.431 C 62.177 21.575,61.492 21.851,61.371 22.046 C 61.251 22.241,60.533 22.400,59.776 22.400 C 59.019 22.400,58.400 22.580,58.400 22.800 C 58.400 23.020,58.040 23.200,57.600 23.200 C 57.160 23.200,56.800 23.380,56.800 23.600 C 56.800 23.820,56.260 24.000,55.600 24.000 C 54.940 24.000,54.400 24.180,54.400 24.400 C 54.400 24.620,53.978 24.800,53.462 24.800 C 52.946 24.800,52.202 25.156,51.809 25.591 C 51.415 26.025,50.952 26.294,50.779 26.187 C 50.606 26.080,50.171 26.286,49.813 26.644 C 49.455 27.002,49.056 27.189,48.926 27.059 C 48.796 26.930,48.192 27.178,47.583 27.612 C 46.975 28.045,46.371 28.400,46.242 28.400 C 45.840 28.400,42.209 31.268,42.043 31.716 C 41.788 32.407,39.264 34.800,38.790 34.800 C 38.549 34.800,38.464 34.980,38.600 35.200 C 38.736 35.420,38.562 35.600,38.213 35.600 C 37.506 35.600,34.000 38.935,34.000 39.608 C 34.000 40.162,32.400 41.761,31.499 42.107 C 31.083 42.266,30.800 42.794,30.800 43.411 C 30.800 44.000,30.627 44.341,30.400 44.200 C 30.180 44.064,30.000 44.143,30.000 44.376 C 30.000 45.189,29.872 45.407,28.814 46.400 C 27.311 47.810,26.384 49.078,27.200 48.608 C 27.601 48.377,27.558 48.539,27.070 49.096 C 26.668 49.555,26.302 50.189,26.255 50.505 C 26.209 50.821,25.862 51.551,25.485 52.126 C 25.108 52.701,24.800 53.448,24.800 53.786 C 24.800 54.124,24.620 54.400,24.400 54.400 C 24.180 54.400,24.000 54.940,24.000 55.600 C 24.000 56.260,23.820 56.800,23.600 56.800 C 23.380 56.800,23.200 57.149,23.200 57.576 C 23.200 58.003,23.011 58.469,22.781 58.612 C 22.499 58.786,22.531 59.081,22.881 59.512 C 23.270 59.993,23.275 60.078,22.900 59.853 C 22.567 59.653,22.400 59.819,22.400 60.353 C 22.400 60.793,22.220 61.264,22.000 61.400 C 21.780 61.536,21.600 62.166,21.600 62.800 C 21.600 63.434,21.420 64.064,21.200 64.200 C 20.980 64.336,20.800 65.157,20.800 66.024 C 20.800 66.891,20.620 67.600,20.400 67.600 C 20.180 67.600,20.000 68.489,20.000 69.576 C 20.000 70.663,19.820 71.664,19.600 71.800 C 19.380 71.936,19.200 73.196,19.200 74.600 C 19.200 76.004,19.030 77.258,18.822 77.387 C 18.285 77.719,18.253 102.000,18.790 102.000 C 19.064 102.000,19.200 107.842,19.200 119.600 C 19.200 131.067,19.061 137.200,18.800 137.200 C 18.542 137.200,18.400 141.800,18.400 150.200 C 18.400 158.600,18.542 163.200,18.800 163.200 C 19.061 163.200,19.200 169.600,19.200 181.600 L 19.200 200.000 65.800 200.000 L 112.400 200.000 112.400 144.600 C 112.400 107.933,112.535 89.200,112.800 89.200 C 113.020 89.200,113.200 88.840,113.200 88.400 C 113.200 87.960,113.380 87.600,113.600 87.600 C 113.820 87.600,114.000 87.176,114.000 86.658 C 114.000 85.597,117.248 82.000,118.206 82.000 C 118.533 82.000,118.800 81.820,118.800 81.600 C 118.800 81.338,126.867 81.200,142.200 81.200 C 157.533 81.200,165.600 81.338,165.600 81.600 C 165.600 81.820,165.875 82.000,166.211 82.000 C 167.004 82.000,170.400 85.396,170.400 86.189 C 170.400 86.525,170.580 86.800,170.800 86.800 C 171.020 86.800,171.200 87.160,171.200 87.600 C 171.200 88.040,171.380 88.400,171.600 88.400 C 171.865 88.400,172.000 107.267,172.000 144.200 L 172.000 200.000 277.200 200.000 L 382.400 200.000 382.400 138.600 C 382.400 97.933,382.265 77.200,382.000 77.200 C 381.775 77.200,381.600 76.075,381.600 74.624 C 381.600 73.207,381.420 71.936,381.200 71.800 C 380.980 71.664,380.800 70.663,380.800 69.576 C 380.800 68.489,380.620 67.600,380.400 67.600 C 380.180 67.600,380.000 66.880,380.000 66.000 C 380.000 65.120,379.820 64.400,379.600 64.400 C 379.380 64.400,379.200 63.860,379.200 63.200 C 379.200 62.540,379.020 62.000,378.800 62.000 C 378.580 62.000,378.400 61.291,378.400 60.424 C 378.400 59.557,378.220 58.736,378.000 58.600 C 377.780 58.464,377.600 58.003,377.600 57.576 C 377.600 57.149,377.420 56.800,377.200 56.800 C 376.980 56.800,376.800 56.361,376.800 55.824 C 376.800 55.287,376.620 54.736,376.400 54.600 C 376.180 54.464,376.000 54.003,376.000 53.576 C 376.000 53.149,375.820 52.800,375.600 52.800 C 375.380 52.800,375.200 52.440,375.200 52.000 C 375.200 51.560,374.990 51.200,374.733 51.200 C 374.477 51.200,374.378 51.088,374.515 50.952 C 374.847 50.619,372.496 46.000,371.994 46.000 C 371.777 46.000,371.600 45.764,371.600 45.475 C 371.600 45.187,371.285 44.602,370.900 44.175 C 370.515 43.749,369.945 42.905,369.632 42.300 C 369.320 41.695,368.812 41.200,368.504 41.200 C 367.868 41.200,366.800 40.248,366.800 39.682 C 366.800 39.162,362.707 35.026,362.055 34.887 C 361.762 34.825,360.652 33.880,359.588 32.787 C 358.523 31.694,357.542 30.800,357.409 30.800 C 357.275 30.800,356.680 30.350,356.087 29.800 C 355.493 29.250,354.781 28.800,354.504 28.800 C 354.227 28.800,354.000 28.625,354.000 28.410 C 354.000 27.950,351.603 26.635,351.594 27.090 C 351.591 27.260,351.454 27.189,351.290 26.932 C 351.126 26.675,350.731 26.405,350.412 26.332 C 350.093 26.259,349.475 25.885,349.040 25.500 C 348.605 25.115,347.833 24.800,347.325 24.800 C 346.816 24.800,346.400 24.620,346.400 24.400 C 346.400 24.180,345.860 24.000,345.200 24.000 C 344.540 24.000,344.000 23.820,344.000 23.600 C 344.000 23.380,343.640 23.200,343.200 23.200 C 342.760 23.200,342.400 23.020,342.400 22.800 C 342.400 22.580,341.691 22.400,340.824 22.400 C 339.957 22.400,339.136 22.220,339.000 22.000 C 338.864 21.780,338.403 21.600,337.976 21.600 C 337.549 21.600,337.200 21.420,337.200 21.200 C 337.200 20.980,336.311 20.800,335.224 20.800 C 334.137 20.800,333.136 20.620,333.000 20.400 C 332.864 20.180,332.144 20.000,331.400 20.000 C 330.656 20.000,329.936 19.820,329.800 19.600 C 329.664 19.380,328.134 19.200,326.400 19.200 C 324.666 19.200,323.136 19.020,323.000 18.800 C 322.657 18.245,78.143 18.245,77.800 18.800 M275.800 81.600 C 275.936 81.820,276.459 82.000,276.962 82.000 C 277.465 82.000,278.202 82.360,278.600 82.800 C 278.998 83.240,279.668 83.600,280.088 83.600 C 282.090 83.600,287.600 91.253,287.600 94.033 C 287.600 94.649,287.780 95.264,288.000 95.400 C 288.262 95.562,288.400 109.530,288.400 136.000 C 288.400 162.470,288.262 176.438,288.000 176.600 C 287.780 176.736,287.600 177.467,287.600 178.224 C 287.600 178.981,287.420 179.600,287.200 179.600 C 286.980 179.600,286.800 179.960,286.800 180.400 C 286.800 180.840,286.620 181.200,286.400 181.200 C 286.180 181.200,286.000 181.653,286.000 182.206 C 286.000 183.935,279.485 190.000,277.629 190.000 C 277.199 190.000,276.736 190.180,276.600 190.400 C 276.464 190.620,275.744 190.800,275.000 190.800 C 274.256 190.800,273.536 190.980,273.400 191.200 C 273.059 191.752,205.341 191.752,205.000 191.200 C 204.864 190.980,204.254 190.800,203.644 190.800 C 199.560 190.800,191.600 182.899,191.600 178.846 C 191.600 178.186,191.420 177.536,191.200 177.400 C 190.938 177.238,190.800 163.063,190.800 136.176 C 190.800 109.125,190.936 95.200,191.200 95.200 C 191.420 95.200,191.600 94.462,191.600 93.560 C 191.600 90.764,196.697 83.600,198.686 83.600 C 198.965 83.600,199.418 83.240,199.693 82.800 C 199.996 82.314,200.626 82.000,201.296 82.000 C 201.903 82.000,202.400 81.820,202.400 81.600 C 202.400 81.336,214.859 81.200,238.976 81.200 C 262.929 81.200,275.638 81.338,275.800 81.600 " stroke="none" fill="#fcd404" fill-rule="evenodd"></path></g></svg>