<?xml version="1.0" standalone="yes"?>
<svg xmlns="http://www.w3.org/2000/svg" width="321" height="321">
<path style="fill:ff; stroke:none;" d="M0 0L0 321L29 321L29 320C-1.13239 314.562 1 281.812 1 259L1 88C1 68.0551 -5.14184 36.0628 6.35957 19C20.2713 -1.63864 40.0789 1 62 1L188 1L258 1C269.043 1 282.221 -0.958221 293 1.52933C304.902 4.27609 317.825 16.9508 320 29L321 29L321 0L0 0z"/>
<path style="fill:#f3f3f3; stroke:none;" d="M26 2L26 3L30 2L26 2z"/>
<path style="fill:#ffffff; stroke:none;" d="M30 1.52316C-0.023386 7.37259 1 37.3044 1 61L1 235C1 255.276 -5.26251 287.736 7.19367 304.91C23.6491 327.6 54.4534 321 79 321L224 321C245.519 321 272.03 325.218 293 320.471C322.489 313.797 321 284.422 321 261L321 85C321 65.1991 327.446 32.4945 314.237 16.1698C296.706 -5.4957 265.855 1 241 1L99 1C77.092 1 51.4916 -2.66403 30 1.52316z"/>
<path style="fill:#f3f3f3; stroke:none;" d="M292.667 1.33334L293.333 1.66666L292.667 1.33334M296 2L297 3L296 2M23 3L24 4L23 3M298 3L299 4L298 3M303 6L304 7L303 6M13 10L14 11L13 10M308 10L309 11L308 10M12 11L13 12L12 11M309 11L310 12L309 11M11 12L12 13L11 12M310 12L311 13L310 12M10 13L11 14L10 13M311 13L312 14L311 13M6 18L7 19L6 18M3 23L4 24L3 23M318 23L319 24L318 23z"/>
<path style="fill:#eaeaea; stroke:none;" d="M3 24L4 25L3 24z"/>
<path style="fill:#f3f3f3; stroke:none;" d="M2 25L3 26L2 25M319 26L320 27L319 26M2 27L3 28L2 27M1.33333 28.6667L1.66667 29.3333L1.33333 28.6667z"/>
<path style="fill:#ff; stroke:none;" d="M58 44.5293C46.2293 47.2324 44.0007 57.4616 44 68L44 133L44 221C44 231.65 40.9813 247.186 48.7639 255.725C53.9872 261.457 61.9547 261 69 261C86.531 261 107.885 264.338 125 260.61C133.307 258.8 138.558 251.199 138.96 243C140.082 220.118 139 196.912 139 174L139 85C139 74.3282 141.956 58.8879 134.468 50.1744C129.016 43.8309 121.668 44 114 44C96.5088 44 75.0431 40.6155 58 44.5293M197 44.4822C189.607 46.0611 184.12 52.5891 183.185 60C180.659 80.0236 183 101.809 183 122C183 136.028 178.243 160.89 186.133 172.985C190.628 179.874 197.397 180.997 205 181C223.472 181.007 245.962 184.51 264 180.61C276.712 177.861 278 166.918 278 156L278 84C278 74.1327 280.313 60.9719 275.175 52.1042C271.226 45.2881 263.154 44.0115 256 44C237.457 43.9702 215.127 40.611 197 44.4822z"/>
<path style="fill:#f3f3f3; stroke:none;" d="M130 46L131 47L130 46M191 46L192 47L191 46M131.667 47.3333L132.333 47.6667L131.667 47.3333M189.667 47.3333L190.333 47.6667L189.667 47.3333z"/>
<path style="fill:#eaeaea; stroke:none;" d="M271 47L272 48L271 47M47 50L48 51L47 50M136 52L137 53L136 52M183 56L184 57L183 56z"/>
<path style="fill:#f3f3f3; stroke:none;" d="M138 57L139 58L138 57M183 57L184 58L183 57M277 168L278 169L277 168M184 170L185 171L184 170M275 172L276 173L275 172M189 177L190 178L189 177M191 178L192 179L191 178z"/>
<path style="fill:#cdcdcd; stroke:none;" d="M195 180L196 181L195 180z"/>
<path style="fill:#f3f3f3; stroke:none;" d="M139 243L140 244L139 243M43 244L44 245L43 244M44 248L45 249L44 248M137 250L138 251L137 250M46 252L47 253L46 252M135 254L136 255L135 254M132 257L133 258L132 257M130 258L131 259L130 258z"/>
<path style="fill:#eaeaea; stroke:none;" d="M59 261L60 262L59 261M123 261L124 262L123 261z"/>
<path style="fill:#f3f3f3; stroke:none;" d="M1.33333 292.667L1.66667 293.333L1.33333 292.667z"/>
<path style="fill:#ff; stroke:none;" d="M320 293C317.832 305.015 305.016 317.832 293 320L293 321L321 321L320 293z"/>
<path style="fill:#f3f3f3; stroke:none;" d="M319 295L320 296L319 295M2 296L3 297L2 296M3 298L4 299L3 298M318 298L319 299L318 298M6 303L7 304L6 303M10 308L11 309L10 308M311 308L312 309L311 308M11 309L12 310L11 309M310 309L311 310L310 309M12 310L13 311L12 310M309 310L310 311L309 310M13 311L14 312L13 311M308 311L309 312L308 311M303 315L304 316L303 315M23 318L24 319L23 318M298 318L299 319L298 318M26 319L27 320L26 319M296 319L297 320L296 319z"/>
</svg>
